<svg width="267" height="335" viewBox="0 0 267 335" fill="none" xmlns="http://www.w3.org/2000/svg">
<path d="M32.7024 79.9269C50.7635 79.9269 65.4048 65.2855 65.4048 47.2245C65.4048 29.1634 50.7635 14.5221 32.7024 14.5221C14.6414 14.5221 0 29.1634 0 47.2245C0 65.2855 14.6414 79.9269 32.7024 79.9269Z" fill="#F5F5F5"/>
<path d="M25.8456 38.5214C24.6588 36.9391 22.2853 36.9391 20.8348 37.994C19.2524 39.1808 18.593 40.4994 18.3293 42.6092C17.9337 40.6313 17.1425 39.1807 15.4283 38.1258C13.8459 37.0709 11.4723 37.2028 10.4174 38.7852C9.75811 39.7082 9.62624 41.0269 9.75811 42.2136C9.88997 43.4004 10.2856 44.7191 11.0768 45.5103C13.8459 48.675 15.1646 49.2025 18.5931 51.4442C21.8897 49.0706 22.9446 48.5431 25.45 45.2465C26.1094 44.3235 26.5049 43.0048 26.6368 41.818C26.7686 40.7631 26.5049 39.4445 25.8456 38.5214Z" fill="white"/>
<path d="M54.7238 37.8621C53.5371 36.2797 51.1634 36.2797 49.7129 37.3346C48.1306 38.5214 47.4713 39.8401 47.2075 41.9499C46.812 39.9719 46.0207 38.5214 44.3065 37.4665C42.7241 36.4116 40.3506 36.5434 39.2957 38.1258C38.6363 39.0489 38.5045 40.3675 38.6363 41.5543C38.7682 42.7411 39.1638 44.0597 39.955 44.8509C42.7241 48.0157 44.0428 48.5431 47.4713 50.7848C50.7679 48.4113 51.8228 47.8838 54.3282 44.5872C54.9875 43.6641 55.3831 42.3455 55.515 41.1587C55.6469 40.1038 55.515 38.7852 54.7238 37.8621Z" fill="white"/>
<path d="M43.779 54.7408C43.3834 60.1472 38.3725 64.7625 33.098 64.7625C27.6915 64.7625 22.6806 60.2791 22.285 54.8726L43.779 54.7408Z" fill="white"/>
<path d="M167.996 1.46746C166.413 -0.510514 163.38 -0.378655 161.534 1.20372C159.688 2.7861 158.765 4.63221 158.633 7.2695C158.106 4.63221 156.787 3.04983 154.677 1.73118C152.567 0.412534 149.535 0.676266 148.216 2.91796C147.425 4.23661 147.293 5.81899 147.557 7.40136C147.82 8.98374 148.348 10.5661 149.403 11.621C153.095 15.4451 154.941 16.1044 159.424 18.7417C163.512 15.577 164.831 14.6539 167.996 10.4342C168.919 9.24746 169.182 7.53323 169.314 6.08272C169.314 4.36848 168.919 2.65424 167.996 1.46746Z" fill="#F5F5F5"/>
<path d="M130.942 134.914C97.5802 134.914 68.0425 151.398 50.109 176.584L14.7692 181.595L34.5489 209.814C32.5709 217.725 31.516 225.901 31.516 234.472C31.516 289.46 76.0863 333.898 130.942 333.898C185.93 333.898 230.368 289.328 230.368 234.472C230.368 179.617 185.798 134.914 130.942 134.914Z" fill="#F5F5F5"/>
<path d="M112.613 93.509C127.25 74.2567 142.546 77.0259 153.227 81.6411C163.908 86.2564 171.029 97.9924 170.369 109.596C170.238 112.629 169.578 115.926 170.765 118.695C172.743 123.179 178.545 124.497 181.974 128.057C186.589 132.936 185.534 140.848 183.952 147.31C182.369 153.903 180.787 161.419 184.611 166.958C188.171 171.968 194.896 173.419 200.435 176.056C207.819 179.617 213.753 186.342 215.863 194.122C217.973 202.034 216.126 211 210.588 217.066C205.182 223 197.006 225.637 189.094 226.692C166.018 230.121 141.623 222.604 124.349 207.044C107.074 191.353 97.4483 167.749 98.5032 144.541" fill="#363A44"/>
<path d="M202.413 219.176C202.413 219.176 202.94 218.649 203.731 217.725C204.522 216.671 205.709 215.088 206.368 212.715C207.028 210.341 207.16 207.308 206.5 203.88C205.841 200.451 204.127 196.759 201.094 193.594C199.643 192.012 197.797 190.561 195.819 189.243C193.841 187.924 191.468 187.001 189.094 185.946C186.721 184.891 184.215 183.968 181.71 182.518C179.336 181.067 177.095 178.957 175.38 176.584C171.82 171.837 169.842 165.507 169.71 159.046C169.578 155.881 169.974 152.584 170.501 149.288C171.161 145.991 171.952 142.826 172.611 139.53C173.007 137.156 173.402 134.783 173.402 132.541C173.402 130.299 172.743 128.058 171.82 125.948C171.029 123.838 169.974 121.728 169.183 119.618C168.391 117.376 168.128 115.135 167.864 113.025C167.6 110.783 167.6 108.673 167.336 106.564C167.073 104.454 166.677 102.476 166.15 100.498C165.095 96.6737 163.381 92.9815 161.271 90.0805C157.579 84.2785 151.645 81.1137 146.238 80.3225C140.7 79.5313 135.953 81.1137 132.524 83.2235C129.096 85.3334 126.986 87.7069 125.799 89.4212C124.612 91.1354 124.085 92.1903 124.085 92.1903C124.085 92.1903 124.481 91.1354 125.667 89.2893C126.854 87.4432 128.832 84.9378 132.392 82.8279C135.821 80.7181 140.7 78.872 146.37 79.6632C151.908 80.4544 158.238 83.6191 162.062 89.553C164.435 92.5859 166.018 96.2781 167.205 100.234C167.732 102.212 168.26 104.322 168.391 106.432C168.655 108.542 168.655 110.783 168.919 112.893C169.183 115.003 169.578 117.245 170.238 119.223C171.029 121.332 171.952 123.31 172.875 125.552C173.798 127.662 174.457 130.035 174.457 132.541C174.457 135.046 174.062 137.288 173.666 139.662C173.007 142.958 172.215 146.255 171.556 149.42C170.897 152.584 170.633 155.881 170.765 159.046C170.897 165.375 172.743 171.441 176.171 176.056C177.886 178.43 179.995 180.276 182.237 181.726C184.611 183.177 186.984 184.232 189.49 185.155C191.863 186.21 194.237 187.133 196.347 188.452C198.457 189.77 200.171 191.353 201.753 192.935C204.786 196.232 206.5 200.056 207.16 203.616C207.819 207.044 207.687 210.209 206.896 212.715C206.105 215.088 204.918 216.671 204.127 217.725C202.94 218.78 202.413 219.176 202.413 219.176Z" fill="#1E2126"/>
<path d="M152.327 193.196C150.351 194.919 148.865 196.449 149.009 196.613C149.152 196.778 150.871 195.515 152.847 193.792C154.823 192.07 156.309 190.539 156.166 190.375C156.022 190.21 154.304 191.473 152.327 193.196Z" fill="#FAFAFA"/>
<path d="M144.26 185.287L100.349 190.693C100.349 190.693 65.0097 197.155 57.889 223.659C53.01 241.989 42.8564 276.01 37.0544 295.394C34.549 303.701 38.373 312.668 46.0212 316.756C55.3836 321.635 66.8558 317.547 70.9436 307.921L90.1958 263.614C90.1958 263.614 96.9209 279.043 96.5253 286.427C96.1297 293.68 80.8335 320.58 80.8335 320.58C113.272 339.173 146.238 336.799 171.952 325.195L170.765 255.307C170.765 255.307 182.897 317.679 207.292 312.932C227.862 308.976 214.28 269.021 207.292 253.725C198.325 234.209 186.721 206.385 179.336 199.66C159.689 181.463 144.26 185.287 144.26 185.287Z" fill="white" stroke="#363A44" stroke-miterlimit="10"/>
<path d="M103.646 194.122C101.009 198.209 97.3163 201.638 93.6241 204.935C91.1187 207.176 88.4814 209.286 85.4485 210.473C82.4156 211.66 78.5915 211.66 75.9542 209.814C73.3169 207.836 72.262 203.616 74.24 201.111C75.6905 199.396 77.9322 198.737 80.042 198.21C87.1627 196.495 94.2834 194.649 101.404 192.935" fill="#F5F5F5"/>
<path d="M47.6034 275.614C47.4716 275.482 49.8451 273.372 53.6692 272.449C57.3614 271.526 60.5261 272.186 60.5261 272.317C60.5261 272.581 57.4933 272.186 53.9329 273.109C50.2407 274.032 47.7353 275.878 47.6034 275.614Z" fill="#263238"/>
<path d="M53.4056 269.548C53.2738 269.416 55.3836 268.362 58.0209 268.625C60.7901 268.889 62.5043 270.339 62.5043 270.471C62.3724 270.603 60.5263 269.548 58.0209 269.416C55.5155 269.021 53.4056 269.812 53.4056 269.548Z" fill="#263238"/>
<path d="M62.1086 272.845C58.2845 270.999 53.4055 271.262 49.977 273.636C49.1858 274.163 48.2628 274.691 47.6035 274.295C46.8123 273.9 46.9441 272.713 47.3397 272.054C48.2628 270.208 50.5045 269.548 52.6143 269.416C56.3065 269.021 59.9987 269.68 63.4272 271.131" fill="#F5F5F5"/>
<path d="M133.579 243.307C131.206 247.922 124.612 250.823 121.448 255.966C118.81 260.318 117.887 265.329 116.305 270.076C111.953 283.262 102.591 294.734 90.4594 301.591C92.8329 296.976 94.8109 292.229 96.2614 287.218C96.9208 282.603 94.9428 278.383 94.9428 278.383C96.3933 273.768 103.118 267.307 106.151 263.483C109.712 258.867 113.404 254.252 117.887 250.56C122.371 246.736 127.777 243.835 133.579 243.307Z" fill="#F5F5F5"/>
<path d="M155.833 285.197C153.687 288.919 152.101 292.025 152.29 292.134C152.479 292.243 154.373 289.314 156.519 285.592C158.665 281.87 160.252 278.764 160.062 278.654C159.873 278.545 157.98 281.474 155.833 285.197Z" fill="#363A44"/>
<path d="M187.907 273.636C188.039 273.636 187.907 275.087 187.776 277.46C187.644 279.834 187.38 282.998 187.512 286.427C187.776 293.548 190.545 298.69 190.281 298.822C190.281 298.822 190.017 298.559 189.754 297.899C189.49 297.372 189.094 296.449 188.699 295.394C187.907 293.152 187.116 289.987 186.853 286.427C186.721 282.867 186.984 279.57 187.248 277.328C187.644 274.955 187.907 273.504 187.907 273.636Z" fill="#263238"/>
<path d="M128.305 303.306C128.436 303.174 130.678 305.415 132.92 308.448C135.162 311.613 136.612 314.382 136.48 314.514C136.348 314.646 134.634 312.009 132.392 308.844C130.151 305.811 128.173 303.437 128.305 303.306Z" fill="#363A44"/>
<path d="M155.59 310.44C152.982 309.143 150.788 308.249 150.691 308.445C150.594 308.641 152.629 309.851 155.237 311.149C157.845 312.446 160.038 313.339 160.136 313.144C160.233 312.948 158.198 311.738 155.59 310.44Z" fill="#363A44"/>
<path d="M135.953 287.218C135.821 287.35 133.975 285.9 131.997 283.79C130.019 281.548 128.964 279.57 129.096 279.438C129.228 279.306 130.678 281.152 132.524 283.394C134.502 285.504 136.085 287.086 135.953 287.218Z" fill="#363A44"/>
<path d="M108.657 305.284C108.525 305.152 110.503 303.569 112.745 301.328C114.986 299.086 116.437 297.108 116.701 297.24C116.833 297.372 115.514 299.613 113.272 301.855C111.03 304.097 108.789 305.415 108.657 305.284Z" fill="#363A44"/>
<path d="M98.2897 315.74C96.2418 313.879 94.4626 312.501 94.3156 312.662C94.1687 312.824 95.7097 314.464 97.7576 316.325C99.8055 318.187 101.585 319.565 101.732 319.403C101.879 319.241 100.338 317.601 98.2897 315.74Z" fill="#363A44"/>
<path d="M126.52 258.558C123.667 260.313 121.447 261.887 121.561 262.073C121.676 262.259 124.082 260.987 126.935 259.232C129.788 257.477 132.008 255.903 131.894 255.717C131.779 255.531 129.374 256.803 126.52 258.558Z" fill="#363A44"/>
<path d="M147.871 258.868C146.479 255.981 145.191 253.718 144.994 253.813C144.797 253.908 145.766 256.325 147.158 259.211C148.549 262.098 149.837 264.361 150.034 264.266C150.231 264.171 149.262 261.754 147.871 258.868Z" fill="#363A44"/>
<path d="M163.552 245.495C162.021 248.059 160.932 250.228 161.12 250.34C161.307 250.452 162.7 248.464 164.231 245.901C165.762 243.338 166.851 241.169 166.663 241.057C166.476 240.945 165.083 242.932 163.552 245.495Z" fill="#363A44"/>
<path d="M142.282 234.209C142.414 234.077 144.524 235 147.425 235.659C150.326 236.318 152.7 236.45 152.7 236.714C152.7 236.846 150.194 237.11 147.293 236.318C144.392 235.659 142.282 234.34 142.282 234.209Z" fill="#363A44"/>
<path d="M152.614 210.963C152.807 213.723 153.141 215.949 153.359 215.934C153.577 215.919 153.597 213.668 153.403 210.907C153.21 208.147 152.876 205.921 152.658 205.936C152.44 205.951 152.42 208.202 152.614 210.963Z" fill="#363A44"/>
<path d="M179.646 246.942C178.477 250.003 177.695 252.548 177.899 252.626C178.103 252.704 179.216 250.285 180.385 247.224C181.554 244.162 182.336 241.617 182.132 241.539C181.928 241.461 180.815 243.88 179.646 246.942Z" fill="#363A44"/>
<path d="M181.446 265.988C181.578 265.856 183.029 267.834 183.952 270.735C185.007 273.504 185.138 276.01 185.007 276.01C184.743 276.01 184.347 273.768 183.292 270.999C182.369 268.098 181.314 265.988 181.446 265.988Z" fill="#363A44"/>
<path d="M104.867 219.755C102.449 218.265 100.396 217.209 100.281 217.395C100.167 217.581 102.034 218.939 104.452 220.428C106.87 221.918 108.924 222.975 109.038 222.789C109.153 222.603 107.285 221.244 104.867 219.755Z" fill="#363A44"/>
<path d="M87.4266 238.956C87.2948 238.824 89.1408 237.11 90.8551 234.472C92.7012 231.967 93.7561 229.593 93.8879 229.725C94.0198 229.725 93.2287 232.231 91.3826 234.868C89.6683 237.505 87.5585 239.088 87.4266 238.956Z" fill="#363A44"/>
<path d="M68.438 239.879C68.5699 239.747 70.8117 241.329 73.1852 243.571C75.5588 245.813 77.1411 248.054 77.0093 248.054C76.8774 248.186 75.0313 246.208 72.6577 243.967C70.416 241.857 68.438 240.011 68.438 239.879Z" fill="#363A44"/>
<path d="M77.6404 216.413C74.97 218.995 72.9282 221.214 73.0801 221.371C73.2319 221.529 75.5198 219.563 78.1903 216.982C80.8608 214.401 82.9025 212.181 82.7507 212.024C82.5989 211.867 80.3109 213.832 77.6404 216.413Z" fill="#363A44"/>
<path d="M59.1689 251.15C60.126 254.208 61.071 256.634 61.2795 256.569C61.488 256.504 60.8811 253.972 59.9239 250.914C58.9668 247.856 58.0218 245.43 57.8133 245.495C57.6048 245.56 58.2117 248.092 59.1689 251.15Z" fill="#363A44"/>
<path d="M70.6031 261.592C70.2871 265 70.2073 267.779 70.4249 267.799C70.6424 267.819 71.0749 265.073 71.3909 261.665C71.7069 258.256 71.7867 255.477 71.5692 255.457C71.3516 255.437 70.9191 258.183 70.6031 261.592Z" fill="#363A44"/>
<path d="M136.085 215.879C133.315 213.901 129.755 213.11 126.327 213.77C123.162 214.429 120.261 216.275 118.415 218.912L106.943 235.263L44.7024 284.845C35.0763 292.493 35.9994 307.525 46.5486 313.987C53.933 318.47 63.5591 317.151 69.2293 310.558L119.997 253.197L126.59 248.186L134.239 242.648L135.953 225.901C135.953 225.901 140.568 228.011 144.26 229.593C149.93 232.231 151.908 227.483 151.908 227.483L136.085 215.879Z" fill="white" stroke="#363A44" stroke-miterlimit="10"/>
<path d="M136.216 226.692C136.084 226.692 135.821 226.297 135.161 225.637C134.502 224.978 133.711 224.055 132.392 223.659C131.205 223.264 129.887 223.659 129.227 224.055C128.568 224.582 128.436 225.11 128.304 225.11C128.173 225.11 128.173 224.451 128.964 223.659C129.623 223 131.205 222.473 132.656 223C134.106 223.527 135.029 224.582 135.557 225.374C136.084 226.033 136.216 226.56 136.216 226.692Z" fill="#363A44"/>
<path d="M128.041 231.176C128.041 231.176 128.173 230.648 128.832 230.121C129.491 229.593 130.546 229.066 131.733 229.198C132.92 229.198 133.975 229.725 134.634 230.253C135.293 230.78 135.425 231.176 135.425 231.308C135.293 231.439 135.03 231.044 134.37 230.648C133.711 230.253 132.788 229.989 131.733 229.989C130.678 229.989 129.755 230.384 129.096 230.648C128.436 230.912 128.041 231.176 128.041 231.176Z" fill="#363A44"/>
<path d="M181.182 212.583L185.534 217.33C185.534 217.33 186.984 284.185 189.49 293.284C191.995 302.383 206.896 317.679 214.94 305.284C222.984 292.888 202.94 214.033 202.94 214.033C202.94 214.033 197.534 195.836 197.138 191.484L181.182 212.583Z" fill="white" stroke="#363A44" stroke-miterlimit="10"/>
<path d="M191.072 173.815L189.358 219.967C189.226 223.264 187.38 226.297 184.611 227.879L170.765 235.923C166.941 238.164 162.062 235.395 162.062 230.912V188.188C162.062 185.814 163.381 183.573 165.49 182.386L186.325 170.782C188.567 169.595 191.204 171.309 191.072 173.815Z" fill="white" stroke="#363A44" stroke-miterlimit="10"/>
<path d="M177.886 190.429C179.561 190.429 180.919 189.072 180.919 187.397C180.919 185.722 179.561 184.364 177.886 184.364C176.211 184.364 174.853 185.722 174.853 187.397C174.853 189.072 176.211 190.429 177.886 190.429Z" fill="#FAFAFA"/>
<path d="M190.149 201.77C190.281 197.814 187.908 198.737 187.908 198.737C185.27 201.902 184.347 205.198 181.182 203.616C178.15 202.165 180.128 196.232 180.128 196.232C179.204 200.319 176.699 201.242 175.117 200.451C172.743 199.133 174.589 195.572 175.38 193.462C176.172 191.484 186.325 186.21 186.325 186.21C186.325 186.21 183.952 183.704 183.029 182.913C182.237 182.254 178.545 185.682 176.567 186.605C174.457 187.528 172.216 186.737 171.82 185.287C171.293 183.836 182.369 177.243 184.743 177.111C186.984 176.979 197.402 192.671 197.402 192.671" fill="white"/>
<path d="M190.149 201.77C190.281 197.814 187.908 198.737 187.908 198.737C185.27 201.902 184.347 205.198 181.182 203.616C178.15 202.165 180.128 196.232 180.128 196.232C179.204 200.319 176.699 201.242 175.117 200.451C172.743 199.133 174.589 195.572 175.38 193.462C176.172 191.484 186.325 186.21 186.325 186.21C186.325 186.21 183.952 183.704 183.029 182.913C182.237 182.254 178.545 185.682 176.567 186.605C174.457 187.528 172.216 186.737 171.82 185.287C171.293 183.836 182.369 177.243 184.743 177.111C186.984 176.979 197.402 192.671 197.402 192.671" stroke="#363A44" stroke-miterlimit="10"/>
<path d="M189.358 191.616C189.358 191.748 188.567 191.616 187.512 191.748C186.325 191.88 184.874 192.276 183.424 193.199C181.973 194.122 180.919 195.44 180.391 196.363C179.864 197.286 179.6 198.078 179.468 198.078C179.336 198.078 179.468 197.286 179.995 196.232C180.523 195.177 181.446 193.726 183.028 192.671C184.611 191.616 186.325 191.221 187.512 191.221C188.567 191.221 189.358 191.484 189.358 191.616Z" fill="#363A44"/>
<path d="M102.591 97.7286V103.663L102.195 192.803C102.195 203.089 111.03 211.396 122.107 211.396C133.315 211.396 142.546 202.825 142.81 192.407C143.073 181.463 143.469 169.859 143.469 169.859C143.469 169.859 157.579 167.749 160.875 149.42C162.458 140.321 162.326 125.288 161.798 112.893C161.271 101.816 151.645 93.3771 140.7 94.432L102.591 97.7286Z" fill="white" stroke="#363A44" stroke-miterlimit="10"/>
<path d="M157.315 124.102C157.315 125.288 156.26 126.343 154.941 126.475C153.623 126.475 152.568 125.552 152.568 124.365C152.568 123.179 153.623 122.124 154.941 121.992C156.26 121.992 157.315 122.915 157.315 124.102Z" fill="#363A44"/>
<path d="M158.238 120.673C157.974 120.937 156.128 119.618 153.622 119.618C151.117 119.486 149.139 120.805 148.875 120.541C148.743 120.409 149.007 119.882 149.93 119.223C150.721 118.695 152.172 118.036 153.754 118.168C155.337 118.168 156.655 118.827 157.446 119.486C158.106 120.014 158.37 120.541 158.238 120.673Z" fill="#363A44"/>
<path d="M133.184 123.706C133.184 124.893 132.129 125.948 130.81 126.08C129.491 126.08 128.436 125.157 128.436 123.97C128.436 122.783 129.491 121.728 130.81 121.596C132.129 121.464 133.184 122.519 133.184 123.706Z" fill="#363A44"/>
<path d="M133.315 120.805C133.052 121.069 131.205 119.75 128.7 119.75C126.195 119.618 124.217 120.937 123.953 120.673C123.821 120.541 124.085 120.014 125.008 119.354C125.799 118.827 127.25 118.168 128.832 118.3C130.414 118.3 131.733 118.959 132.524 119.618C133.183 120.014 133.447 120.541 133.315 120.805Z" fill="#363A44"/>
<path d="M142.15 139.793C142.15 139.662 143.733 139.398 146.238 139.134C146.897 139.134 147.557 139.002 147.689 138.475C147.82 137.947 147.557 137.288 147.293 136.497C146.765 134.914 146.106 133.2 145.447 131.486C142.941 124.365 141.095 118.563 141.359 118.431C141.623 118.3 143.996 123.97 146.502 131.09C147.161 132.805 147.689 134.519 148.216 136.101C148.48 136.892 148.875 137.684 148.48 138.607C148.348 139.134 147.82 139.398 147.425 139.53C147.029 139.662 146.634 139.662 146.37 139.662C143.733 139.925 142.15 139.925 142.15 139.793Z" fill="#363A44"/>
<path d="M134.634 141.376C135.029 141.376 135.029 144.145 137.271 146.123C139.645 148.101 142.546 147.837 142.546 148.233C142.546 148.365 141.886 148.76 140.7 148.76C139.513 148.76 137.667 148.365 136.348 147.178C134.898 145.991 134.37 144.277 134.238 143.222C134.106 142.035 134.502 141.376 134.634 141.376Z" fill="#363A44"/>
<path d="M80.306 201.638C95.4704 202.825 108.921 192.012 111.162 176.979C111.426 175.397 111.69 174.078 111.954 173.287C114.063 167.881 114.063 161.815 112.613 156.277C111.954 153.639 110.899 150.87 112.085 148.497C112.877 146.782 114.723 145.727 116.173 144.409C119.47 141.508 121.184 137.156 121.58 132.937C121.975 128.585 120.92 124.233 119.47 120.146C118.679 117.904 117.624 115.399 118.415 113.157C119.074 111.574 120.393 110.52 121.712 109.333C124.349 106.959 126.591 104.058 128.305 100.893C130.019 97.5968 131.074 93.509 126.722 90.8717C125.799 90.3442 124.744 89.9486 123.689 89.8167C115.909 88.63 106.679 89.8168 101.404 95.8825C97.1847 100.893 96.5253 107.882 96.1297 114.475C94.8111 135.046 60.6582 173.419 73.8447 201.638H80.306Z" fill="#363A44"/>
<path d="M134.107 110.783C133.843 111.443 131.338 111.047 128.305 111.443C125.272 111.706 122.898 112.498 122.503 111.838C122.371 111.574 122.766 110.915 123.69 110.256C124.613 109.596 126.195 108.937 128.041 108.805C129.887 108.673 131.47 108.937 132.524 109.465C133.711 109.86 134.239 110.52 134.107 110.783Z" fill="#363A44"/>
<path d="M157.447 113.289C157.051 113.816 155.205 113.289 153.095 113.157C150.986 113.025 149.14 113.421 148.744 112.893C148.612 112.629 148.876 111.97 149.667 111.443C150.458 110.915 151.777 110.52 153.227 110.52C154.678 110.651 155.865 111.179 156.656 111.706C157.447 112.497 157.711 113.025 157.447 113.289Z" fill="#363A44"/>
<path d="M225.225 128.717C226.682 128.717 227.863 127.536 227.863 126.08C227.863 124.623 226.682 123.442 225.225 123.442C223.769 123.442 222.588 124.623 222.588 126.08C222.588 127.536 223.769 128.717 225.225 128.717Z" fill="#363A44"/>
<path d="M235.642 128.717C237.099 128.717 238.28 127.536 238.28 126.08C238.28 124.623 237.099 123.442 235.642 123.442C234.186 123.442 233.005 124.623 233.005 126.08C233.005 127.536 234.186 128.717 235.642 128.717Z" fill="#363A44"/>
<path d="M246.324 128.717C247.78 128.717 248.961 127.536 248.961 126.08C248.961 124.623 247.78 123.442 246.324 123.442C244.867 123.442 243.686 124.623 243.686 126.08C243.686 127.536 244.867 128.717 246.324 128.717Z" fill="#363A44"/>
<path d="M235.774 95.8825C235.774 95.8825 235.906 95.8825 236.302 95.8825C236.697 95.8825 237.225 95.8825 237.884 95.8825C238.28 95.8825 238.544 95.8825 239.071 95.8825C239.467 95.8825 239.994 96.0144 240.39 96.0144C240.917 96.1463 241.445 96.1463 241.972 96.2781C242.5 96.41 243.159 96.5419 243.686 96.6737C246.192 97.3331 249.225 98.388 252.257 100.366C255.29 102.344 258.587 105.113 261.092 108.937C263.598 112.761 265.576 117.64 266.103 123.047C266.103 124.365 266.367 125.816 266.235 127.134C266.235 127.794 266.235 128.585 266.103 129.244C265.971 129.904 265.84 130.695 265.84 131.354C265.312 134.123 264.389 137.024 262.938 139.793C261.488 142.563 259.642 145.068 257.4 147.31C255.158 149.551 252.389 151.529 249.488 152.98C246.587 154.43 243.291 155.485 239.862 155.881C239.071 156.013 238.148 156.013 237.225 156.145C236.302 156.145 235.511 156.277 234.588 156.145C232.873 156.013 231.159 155.881 229.313 155.485C225.621 154.694 222.06 153.112 218.896 151.134H219.159C215.599 152.584 212.039 154.035 208.61 155.354L207.951 155.617L208.083 154.958C209.138 151.134 210.193 147.31 211.248 143.618V143.881C208.215 139.925 206.369 135.442 205.577 130.959C205.182 128.717 205.05 126.475 205.182 124.365C205.182 123.31 205.314 122.255 205.446 121.201C205.577 120.673 205.577 120.146 205.709 119.618C205.841 119.091 205.973 118.563 206.105 118.168C208.215 110.256 213.094 104.322 217.973 100.893C220.346 99.1792 222.852 97.9924 224.961 97.2012C225.489 97.0693 226.016 96.8056 226.544 96.6737C227.071 96.5419 227.599 96.41 227.994 96.2781C228.522 96.1463 228.917 96.0144 229.313 95.8825C229.709 95.7507 230.236 95.7507 230.632 95.7507C231.423 95.6188 232.082 95.4869 232.742 95.4869C233.401 95.4869 233.928 95.4869 234.324 95.4869C234.719 95.4869 234.983 95.4869 235.247 95.4869C235.642 95.8825 235.774 95.8825 235.774 95.8825C235.774 95.8825 235.643 95.8825 235.511 95.8825C235.247 95.8825 234.983 95.8825 234.588 96.0144C234.192 96.0144 233.665 96.0144 233.005 96.1463C232.346 96.1463 231.687 96.41 230.895 96.41C227.731 96.9374 223.115 98.2561 218.368 101.685C213.621 105.113 208.874 110.915 206.896 118.695C206.764 119.223 206.632 119.618 206.5 120.146C206.369 120.673 206.369 121.201 206.237 121.728C206.105 122.783 205.973 123.838 205.973 124.893C205.841 127.003 205.973 129.244 206.369 131.354C207.16 135.706 209.006 140.189 211.907 144.013L212.039 144.145V144.277C210.984 147.969 210.061 151.661 209.006 155.617L208.478 155.222C211.907 153.771 215.467 152.452 219.028 151.002L219.159 150.87L219.291 151.002C222.324 152.98 225.753 154.43 229.445 155.222C231.159 155.617 232.873 155.749 234.588 155.881C235.379 155.881 236.302 155.881 237.093 155.881C237.884 155.881 238.807 155.881 239.598 155.617C242.895 155.222 246.192 154.167 249.093 152.716C251.994 151.266 254.631 149.288 256.873 147.178C259.114 144.936 260.829 142.431 262.279 139.793C263.73 137.156 264.521 134.255 265.18 131.486C265.312 130.827 265.444 130.035 265.444 129.376C265.576 128.717 265.576 127.926 265.576 127.266C265.708 125.948 265.576 124.497 265.576 123.179C265.048 117.904 263.202 113.157 260.697 109.333C258.191 105.509 255.027 102.739 251.994 100.762C248.961 98.7836 246.06 97.5968 243.554 96.9375C242.895 96.8056 242.368 96.6737 241.84 96.41C241.313 96.2781 240.785 96.2781 240.258 96.1463C239.73 96.0144 239.335 96.0144 238.939 95.8825C238.543 95.8825 238.148 95.8825 237.752 95.7507C237.093 95.7507 236.566 95.6188 236.17 95.6188C235.906 95.8825 235.774 95.8825 235.774 95.8825Z" fill="#363A44"/>
</svg>
